<svg xmlns="http://www.w3.org/2000/svg" width="186" height="165" viewBox="0 0 186 165">
  <g fill="#56A5C1" fillRule="evenodd" opacity=".7" transform="translate(8 8)">
    <circle cx="2.285" cy="2.248" r="1.662"/>
    <circle cx="2.285" cy="16.758" r="1.662"/>
    <circle cx="2.285" cy="31.268" r="1.662"/>
    <circle cx="2.285" cy="45.779" r="1.662"/>
    <circle cx="2.285" cy="60.289" r="1.662"/>
    <circle cx="2.285" cy="74.8" r="1.662"/>
    <circle cx="2.285" cy="89.31" r="1.662"/>
    <circle cx="2.285" cy="103.82" r="1.662"/>
    <circle cx="2.285" cy="118.331" r="1.662"/>
    <circle cx="2.285" cy="132.841" r="1.662"/>
    <circle cx="2.285" cy="147.351" r="1.662"/>
    <circle cx="2.285" cy="2.248" r="1.662"/>
    <circle cx="2.285" cy="16.758" r="1.662"/>
    <circle cx="2.285" cy="31.268" r="1.662"/>
    <circle cx="2.285" cy="45.779" r="1.662"/>
    <circle cx="2.285" cy="60.289" r="1.662"/>
    <circle cx="2.285" cy="74.8" r="1.662"/>
    <circle cx="2.285" cy="89.31" r="1.662"/>
    <circle cx="2.285" cy="103.82" r="1.662"/>
    <circle cx="2.285" cy="118.331" r="1.662"/>
    <circle cx="2.285" cy="132.841" r="1.662"/>
    <circle cx="2.285" cy="147.351" r="1.662"/>
    <g transform="translate(15)">
      <circle cx="2.372" cy="2.248" r="1.662"/>
      <circle cx="2.372" cy="16.758" r="1.662"/>
      <circle cx="2.372" cy="31.268" r="1.662"/>
      <circle cx="2.372" cy="45.779" r="1.662"/>
      <circle cx="2.372" cy="60.289" r="1.662"/>
      <circle cx="2.372" cy="74.8" r="1.662"/>
      <circle cx="2.372" cy="89.31" r="1.662"/>
      <circle cx="2.372" cy="103.82" r="1.662"/>
      <circle cx="2.372" cy="118.331" r="1.662"/>
      <circle cx="2.372" cy="132.841" r="1.662"/>
      <circle cx="2.372" cy="147.351" r="1.662"/>
      <circle cx="2.372" cy="2.248" r="1.662"/>
      <circle cx="2.372" cy="16.758" r="1.662"/>
      <circle cx="2.372" cy="31.268" r="1.662"/>
      <circle cx="2.372" cy="45.779" r="1.662"/>
      <circle cx="2.372" cy="60.289" r="1.662"/>
      <circle cx="2.372" cy="74.8" r="1.662"/>
      <circle cx="2.372" cy="89.31" r="1.662"/>
      <circle cx="2.372" cy="103.82" r="1.662"/>
      <circle cx="2.372" cy="118.331" r="1.662"/>
      <circle cx="2.372" cy="132.841" r="1.662"/>
      <circle cx="2.372" cy="147.351" r="1.662"/>
    </g>
    <g transform="translate(30)">
      <circle cx="2.458" cy="2.248" r="1.662"/>
      <circle cx="2.458" cy="16.758" r="1.662"/>
      <circle cx="2.458" cy="31.268" r="1.662"/>
      <circle cx="2.458" cy="45.779" r="1.662"/>
      <circle cx="2.458" cy="60.289" r="1.662"/>
      <circle cx="2.458" cy="74.8" r="1.662"/>
      <circle cx="2.458" cy="89.31" r="1.662"/>
      <circle cx="2.458" cy="103.82" r="1.662"/>
      <circle cx="2.458" cy="118.331" r="1.662"/>
      <circle cx="2.458" cy="132.841" r="1.662"/>
      <circle cx="2.458" cy="147.351" r="1.662"/>
      <circle cx="2.458" cy="2.248" r="1.662"/>
      <circle cx="2.458" cy="16.758" r="1.662"/>
      <circle cx="2.458" cy="31.268" r="1.662"/>
      <circle cx="2.458" cy="45.779" r="1.662"/>
      <circle cx="2.458" cy="60.289" r="1.662"/>
      <circle cx="2.458" cy="74.8" r="1.662"/>
      <circle cx="2.458" cy="89.31" r="1.662"/>
      <circle cx="2.458" cy="103.82" r="1.662"/>
      <circle cx="2.458" cy="118.331" r="1.662"/>
      <circle cx="2.458" cy="132.841" r="1.662"/>
      <circle cx="2.458" cy="147.351" r="1.662"/>
    </g>
    <g transform="translate(45)">
      <circle cx="2.545" cy="2.248" r="1.662"/>
      <circle cx="2.545" cy="16.758" r="1.662"/>
      <circle cx="2.545" cy="31.268" r="1.662"/>
      <circle cx="2.545" cy="45.779" r="1.662"/>
      <circle cx="2.545" cy="60.289" r="1.662"/>
      <circle cx="2.545" cy="74.8" r="1.662"/>
      <circle cx="2.545" cy="89.31" r="1.662"/>
      <circle cx="2.545" cy="103.82" r="1.662"/>
      <circle cx="2.545" cy="118.331" r="1.662"/>
      <circle cx="2.545" cy="132.841" r="1.662"/>
      <circle cx="2.545" cy="147.351" r="1.662"/>
      <circle cx="2.545" cy="2.248" r="1.662"/>
      <circle cx="2.545" cy="16.758" r="1.662"/>
      <circle cx="2.545" cy="31.268" r="1.662"/>
      <circle cx="2.545" cy="45.779" r="1.662"/>
      <circle cx="2.545" cy="60.289" r="1.662"/>
      <circle cx="2.545" cy="74.8" r="1.662"/>
      <circle cx="2.545" cy="89.31" r="1.662"/>
      <circle cx="2.545" cy="103.82" r="1.662"/>
      <circle cx="2.545" cy="118.331" r="1.662"/>
      <circle cx="2.545" cy="132.841" r="1.662"/>
      <circle cx="2.545" cy="147.351" r="1.662"/>
    </g>
    <g transform="translate(60)">
      <circle cx="2.631" cy="2.248" r="1.662"/>
      <circle cx="2.631" cy="16.758" r="1.662"/>
      <circle cx="2.631" cy="31.268" r="1.662"/>
      <circle cx="2.631" cy="45.779" r="1.662"/>
      <circle cx="2.631" cy="60.289" r="1.662"/>
      <circle cx="2.631" cy="74.8" r="1.662"/>
      <circle cx="2.631" cy="89.31" r="1.662"/>
      <circle cx="2.631" cy="103.82" r="1.662"/>
      <circle cx="2.631" cy="118.331" r="1.662"/>
      <circle cx="2.631" cy="132.841" r="1.662"/>
      <circle cx="2.631" cy="147.351" r="1.662"/>
      <circle cx="2.631" cy="2.248" r="1.662"/>
      <circle cx="2.631" cy="16.758" r="1.662"/>
      <circle cx="2.631" cy="31.268" r="1.662"/>
      <circle cx="2.631" cy="45.779" r="1.662"/>
      <circle cx="2.631" cy="60.289" r="1.662"/>
      <circle cx="2.631" cy="74.8" r="1.662"/>
      <circle cx="2.631" cy="89.31" r="1.662"/>
      <circle cx="2.631" cy="103.82" r="1.662"/>
      <circle cx="2.631" cy="118.331" r="1.662"/>
      <circle cx="2.631" cy="132.841" r="1.662"/>
      <circle cx="2.631" cy="147.351" r="1.662"/>
    </g>
    <g transform="translate(76)">
      <circle cx="1.718" cy="2.248" r="1.662"/>
      <circle cx="1.718" cy="16.758" r="1.662"/>
      <circle cx="1.718" cy="31.268" r="1.662"/>
      <circle cx="1.718" cy="45.779" r="1.662"/>
      <circle cx="1.718" cy="60.289" r="1.662"/>
      <circle cx="1.718" cy="74.8" r="1.662"/>
      <circle cx="1.718" cy="89.31" r="1.662"/>
      <circle cx="1.718" cy="103.82" r="1.662"/>
      <circle cx="1.718" cy="118.331" r="1.662"/>
      <circle cx="1.718" cy="132.841" r="1.662"/>
      <circle cx="1.718" cy="147.351" r="1.662"/>
      <circle cx="1.718" cy="2.248" r="1.662"/>
      <circle cx="1.718" cy="16.758" r="1.662"/>
      <circle cx="1.718" cy="31.268" r="1.662"/>
      <circle cx="1.718" cy="45.779" r="1.662"/>
      <circle cx="1.718" cy="60.289" r="1.662"/>
      <circle cx="1.718" cy="74.8" r="1.662"/>
      <circle cx="1.718" cy="89.31" r="1.662"/>
      <circle cx="1.718" cy="103.82" r="1.662"/>
      <circle cx="1.718" cy="118.331" r="1.662"/>
      <circle cx="1.718" cy="132.841" r="1.662"/>
      <circle cx="1.718" cy="147.351" r="1.662"/>
    </g>
    <g transform="translate(91)">
      <circle cx="1.805" cy="2.248" r="1.662"/>
      <circle cx="1.805" cy="16.758" r="1.662"/>
      <circle cx="1.805" cy="31.268" r="1.662"/>
      <circle cx="1.805" cy="45.779" r="1.662"/>
      <circle cx="1.805" cy="60.289" r="1.662"/>
      <circle cx="1.805" cy="74.8" r="1.662"/>
      <circle cx="1.805" cy="89.31" r="1.662"/>
      <circle cx="1.805" cy="103.82" r="1.662"/>
      <circle cx="1.805" cy="118.331" r="1.662"/>
      <circle cx="1.805" cy="132.841" r="1.662"/>
      <circle cx="1.805" cy="147.351" r="1.662"/>
      <circle cx="1.805" cy="2.248" r="1.662"/>
      <circle cx="1.805" cy="16.758" r="1.662"/>
      <circle cx="1.805" cy="31.268" r="1.662"/>
      <circle cx="1.805" cy="45.779" r="1.662"/>
      <circle cx="1.805" cy="60.289" r="1.662"/>
      <circle cx="1.805" cy="74.8" r="1.662"/>
      <circle cx="1.805" cy="89.31" r="1.662"/>
      <circle cx="1.805" cy="103.82" r="1.662"/>
      <circle cx="1.805" cy="118.331" r="1.662"/>
      <circle cx="1.805" cy="132.841" r="1.662"/>
      <circle cx="1.805" cy="147.351" r="1.662"/>
    </g>
    <g transform="translate(106)">
      <circle cx="1.891" cy="2.248" r="1.662"/>
      <circle cx="1.891" cy="16.758" r="1.662"/>
      <circle cx="1.891" cy="31.268" r="1.662"/>
      <circle cx="1.891" cy="45.779" r="1.662"/>
      <circle cx="1.891" cy="60.289" r="1.662"/>
      <circle cx="1.891" cy="74.8" r="1.662"/>
      <circle cx="1.891" cy="89.31" r="1.662"/>
      <circle cx="1.891" cy="103.82" r="1.662"/>
      <circle cx="1.891" cy="118.331" r="1.662"/>
      <circle cx="1.891" cy="132.841" r="1.662"/>
      <circle cx="1.891" cy="147.351" r="1.662"/>
      <circle cx="1.891" cy="2.248" r="1.662"/>
      <circle cx="1.891" cy="16.758" r="1.662"/>
      <circle cx="1.891" cy="31.268" r="1.662"/>
      <circle cx="1.891" cy="45.779" r="1.662"/>
      <circle cx="1.891" cy="60.289" r="1.662"/>
      <circle cx="1.891" cy="74.8" r="1.662"/>
      <circle cx="1.891" cy="89.31" r="1.662"/>
      <circle cx="1.891" cy="103.82" r="1.662"/>
      <circle cx="1.891" cy="118.331" r="1.662"/>
      <circle cx="1.891" cy="132.841" r="1.662"/>
      <circle cx="1.891" cy="147.351" r="1.662"/>
    </g>
    <g transform="translate(121)">
      <circle cx="1.978" cy="2.248" r="1.662"/>
      <circle cx="1.978" cy="16.758" r="1.662"/>
      <circle cx="1.978" cy="31.268" r="1.662"/>
      <circle cx="1.978" cy="45.779" r="1.662"/>
      <circle cx="1.978" cy="60.289" r="1.662"/>
      <circle cx="1.978" cy="74.8" r="1.662"/>
      <circle cx="1.978" cy="89.31" r="1.662"/>
      <circle cx="1.978" cy="103.82" r="1.662"/>
      <circle cx="1.978" cy="118.331" r="1.662"/>
      <circle cx="1.978" cy="132.841" r="1.662"/>
      <circle cx="1.978" cy="147.351" r="1.662"/>
      <circle cx="1.978" cy="2.248" r="1.662"/>
      <circle cx="1.978" cy="16.758" r="1.662"/>
      <circle cx="1.978" cy="31.268" r="1.662"/>
      <circle cx="1.978" cy="45.779" r="1.662"/>
      <circle cx="1.978" cy="60.289" r="1.662"/>
      <circle cx="1.978" cy="74.8" r="1.662"/>
      <circle cx="1.978" cy="89.31" r="1.662"/>
      <circle cx="1.978" cy="103.82" r="1.662"/>
      <circle cx="1.978" cy="118.331" r="1.662"/>
      <circle cx="1.978" cy="132.841" r="1.662"/>
      <circle cx="1.978" cy="147.351" r="1.662"/>
    </g>
    <g transform="translate(136)">
      <circle cx="2.065" cy="2.248" r="1.662"/>
      <circle cx="2.065" cy="16.758" r="1.662"/>
      <circle cx="2.065" cy="31.268" r="1.662"/>
      <circle cx="2.065" cy="45.779" r="1.662"/>
      <circle cx="2.065" cy="60.289" r="1.662"/>
      <circle cx="2.065" cy="74.8" r="1.662"/>
      <circle cx="2.065" cy="89.31" r="1.662"/>
      <circle cx="2.065" cy="103.82" r="1.662"/>
      <circle cx="2.065" cy="118.331" r="1.662"/>
      <circle cx="2.065" cy="132.841" r="1.662"/>
      <circle cx="2.065" cy="147.351" r="1.662"/>
      <circle cx="2.065" cy="2.248" r="1.662"/>
      <circle cx="2.065" cy="16.758" r="1.662"/>
      <circle cx="2.065" cy="31.268" r="1.662"/>
      <circle cx="2.065" cy="45.779" r="1.662"/>
      <circle cx="2.065" cy="60.289" r="1.662"/>
      <circle cx="2.065" cy="74.8" r="1.662"/>
      <circle cx="2.065" cy="89.31" r="1.662"/>
      <circle cx="2.065" cy="103.82" r="1.662"/>
      <circle cx="2.065" cy="118.331" r="1.662"/>
      <circle cx="2.065" cy="132.841" r="1.662"/>
      <circle cx="2.065" cy="147.351" r="1.662"/>
    </g>
    <g transform="translate(151)">
      <circle cx="2.151" cy="2.248" r="1.662"/>
      <circle cx="2.151" cy="16.758" r="1.662"/>
      <circle cx="2.151" cy="31.268" r="1.662"/>
      <circle cx="2.151" cy="45.779" r="1.662"/>
      <circle cx="2.151" cy="60.289" r="1.662"/>
      <circle cx="2.151" cy="74.8" r="1.662"/>
      <circle cx="2.151" cy="89.31" r="1.662"/>
      <circle cx="2.151" cy="103.82" r="1.662"/>
      <circle cx="2.151" cy="118.331" r="1.662"/>
      <circle cx="2.151" cy="132.841" r="1.662"/>
      <circle cx="2.151" cy="147.351" r="1.662"/>
      <circle cx="2.151" cy="2.248" r="1.662"/>
      <circle cx="2.151" cy="16.758" r="1.662"/>
      <circle cx="2.151" cy="31.268" r="1.662"/>
      <circle cx="2.151" cy="45.779" r="1.662"/>
      <circle cx="2.151" cy="60.289" r="1.662"/>
      <circle cx="2.151" cy="74.8" r="1.662"/>
      <circle cx="2.151" cy="89.31" r="1.662"/>
      <circle cx="2.151" cy="103.82" r="1.662"/>
      <circle cx="2.151" cy="118.331" r="1.662"/>
      <circle cx="2.151" cy="132.841" r="1.662"/>
      <circle cx="2.151" cy="147.351" r="1.662"/>
    </g>
    <g transform="translate(166)">
      <circle cx="2.238" cy="2.248" r="1.662"/>
      <circle cx="2.238" cy="16.758" r="1.662"/>
      <circle cx="2.238" cy="31.268" r="1.662"/>
      <circle cx="2.238" cy="45.779" r="1.662"/>
      <circle cx="2.238" cy="60.289" r="1.662"/>
      <circle cx="2.238" cy="74.8" r="1.662"/>
      <circle cx="2.238" cy="89.31" r="1.662"/>
      <circle cx="2.238" cy="103.82" r="1.662"/>
      <circle cx="2.238" cy="118.331" r="1.662"/>
      <circle cx="2.238" cy="132.841" r="1.662"/>
      <circle cx="2.238" cy="147.351" r="1.662"/>
      <circle cx="2.238" cy="2.248" r="1.662"/>
      <circle cx="2.238" cy="16.758" r="1.662"/>
      <circle cx="2.238" cy="31.268" r="1.662"/>
      <circle cx="2.238" cy="45.779" r="1.662"/>
      <circle cx="2.238" cy="60.289" r="1.662"/>
      <circle cx="2.238" cy="74.8" r="1.662"/>
      <circle cx="2.238" cy="89.31" r="1.662"/>
      <circle cx="2.238" cy="103.82" r="1.662"/>
      <circle cx="2.238" cy="118.331" r="1.662"/>
      <circle cx="2.238" cy="132.841" r="1.662"/>
      <circle cx="2.238" cy="147.351" r="1.662"/>
    </g>
  </g>
</svg>
