<svg xmlns="http://www.w3.org/2000/svg" xmlns:xlink="http://www.w3.org/1999/xlink" width="1149" height="186" viewBox="0 0 1149 186">
  <defs>
    <polygon id="clippingsme-logo_light-a" points=".06 .831 145.504 .831 145.504 185.94 .06 185.94"/>
  </defs>
  <g fill="none" fillRule="evenodd">
    <mask id="clippingsme-logo_light-b" fill="#fff">
      <use xlink:href="#clippingsme-logo_light-a"/>
    </mask>
    <path fill="#496B9C" d="M47.504,118.013 L47.504,144.013 L7.504,144.013 L7.504,43.013 L23.504,43.013 L23.504,118.013 L47.504,118.013 Z M55.504,144.013 L89.504,144.013 L89.504,118.013 L55.504,118.013 L55.504,144.013 Z M97.504,110.013 L113.504,110.013 L113.504,76.013 L97.504,76.013 L97.504,110.013 Z M55.504,110.013 L89.504,110.013 L89.504,76.013 L55.504,76.013 L55.504,110.013 Z M31.504,43.013 L89.504,43.013 L89.504,68.013 L47.504,68.013 L47.504,110.013 L31.504,110.013 L31.504,43.013 Z M112.887,8.878 L113.026,68.013 L97.504,68.013 L97.504,34.013 L31.504,34.013 L31.504,8.894 L112.887,8.878 Z M55.504,152.013 L97.504,152.013 L97.504,118.013 L121.504,118.013 L121.504,76.013 L136.504,76.013 L136.504,177.013 L55.504,177.013 L55.504,152.013 Z M121.404,68.013 L121.456,0.502 L23.504,0.517 L23.504,34.013 L-0.496,34.013 L-0.496,152.013 L47.504,152.013 L47.504,186.013 L145.504,186.013 L145.504,68.013 L121.404,68.013 Z" mask="url(#clippingsme-logo_light-b)"/>
    <path fill="#FFF" d="M263.213 73.492C261.061 80.13 253.884 83.898 247.246 81.745 240.608 79.591 237.019 72.596 239.173 66.137 240.248 62.549 242.402 60.215 245.274 58.96 247.066 58.064 244.017 53.577 235.045 53.577 226.615 53.577 215.669 63.804 215.669 91.253 215.669 110.631 225 119.96 238.815 121.395 247.785 122.291 258.191 118.345 261.42 112.246L263.394 113.321C262.137 123.548 250.475 137.361 228.05 137.361 204.546 137.361 186.785 117.09 186.785 93.946 186.785 71.34 202.215 51.246 234.508 51.246 247.964 51.246 256.217 56.986 259.983 60.754 263.035 63.624 264.468 69.007 263.213 73.492M310.042 135.747L269.134 135.747 269.134 133.595C275.952 131.621 276.312 124.085 276.312 114.756L276.312 22.899C276.312 16.62 274.338 13.929 266.983 11.237L266.983 9.083 302.685 1.908 302.685 114.756C302.685 124.624 303.583 131.801 310.042 133.595L310.042 135.747M333.006 12.492C341.079 12.492 347.715 18.951 347.715 27.204 347.715 35.277 341.079 41.738 333.006 41.738 324.751 41.738 318.292 35.277 318.292 27.204 318.292 18.951 324.751 12.492 333.006 12.492zM355.432 135.747L314.526 135.747 314.526 133.595C321.344 131.442 321.703 123.905 321.703 114.756L321.703 72.955C321.703 66.674 319.73 64.163 312.373 60.934L312.373 58.601 348.075 51.246 348.075 114.756C348.075 124.624 348.973 131.801 355.432 133.595L355.432 135.747zM409.972 57.705C399.209 57.705 394.365 67.213 393.289 78.516L393.289 110.451C394.544 127.674 401.899 135.03 411.228 135.03 422.712 135.03 429.53 124.085 429.53 96.097 429.53 71.161 423.608 57.705 409.972 57.705zM414.998 137.361C406.027 137.361 398.67 135.567 393.289 132.517L393.289 163.016C393.289 172.884 394.365 179.342 400.644 180.957L400.644 183.29 359.918 183.29 359.918 180.957C366.736 178.985 366.914 172.167 366.914 163.016L366.914 71.698C366.914 65.419 365.121 63.624 357.765 60.934L357.765 58.601 393.289 51.246 393.289 65.598C398.67 55.91 409.795 51.246 422.353 51.246 444.778 51.246 460.386 68.828 460.386 93.946 460.386 126.239 439.036 137.361 414.998 137.361zM516.184 57.705C505.421 57.705 500.577 67.213 499.501 78.516L499.501 110.451C500.756 127.674 508.111 135.03 517.442 135.03 528.924 135.03 535.742 124.085 535.742 96.097 535.742 71.161 529.82 57.705 516.184 57.705zM521.208 137.361C512.238 137.361 504.882 135.567 499.501 132.517L499.501 163.016C499.501 172.884 500.577 179.342 506.856 180.957L506.856 183.29 466.13 183.29 466.13 180.957C472.948 178.985 473.125 172.167 473.125 163.016L473.125 71.698C473.125 65.419 471.333 63.624 463.976 60.934L463.976 58.601 499.501 51.246 499.501 65.598C504.882 55.91 516.007 51.246 528.565 51.246 550.99 51.246 566.6 68.828 566.6 93.946 566.6 126.239 545.25 137.361 521.208 137.361zM592.616 12.492C600.689 12.492 607.327 18.951 607.327 27.204 607.327 35.277 600.689 41.738 592.616 41.738 584.363 41.738 577.904 35.277 577.904 27.204 577.904 18.951 584.363 12.492 592.616 12.492zM615.041 135.747L574.136 135.747 574.136 133.595C580.954 131.442 581.311 123.905 581.311 114.756L581.311 72.955C581.311 66.674 579.339 64.163 571.982 60.934L571.982 58.601 607.684 51.246 607.684 114.756C607.684 124.624 608.583 131.801 615.041 133.595L615.041 135.747z"/>
    <path fill="#FFF" d="M95.924 87.747L55.019 87.747 55.019 85.595C61.835 83.621 62.194 75.728 62.194 66.577L62.194 31.234C62.194 21.724 57.53 16.163 48.738 16.163 43.178 16.163 37.076 21.546 35.821 27.106L35.821 66.936C35.821 76.804 36.719 83.801 43.178 85.595L43.178 87.747 2.273 87.747 2.273 85.595C9.09 83.621 9.268 76.085 9.268 66.936L9.268 24.775C9.268 18.494 7.476 16.163.119 12.934L.119 10.601 35.821 3.246 35.821 21.546C40.128 11.319 51.967 3.246 62.554 3.246 76.726 3.246 88.568 8.986 88.568 30.516L88.568 66.577C88.568 76.444 89.466 83.981 95.924 85.595L95.924 87.747M139.163 5.577C131.447 5.577 128.936 10.064 128.936 30.156 128.936 50.251 132.524 54.915 139.163 54.915 145.981 54.915 149.567 50.251 149.567 30.156 149.567 10.064 146.338 5.577 139.163 5.577zM122.837 118.246C137.905 125.782 155.489 126.678 165.356 119.683 173.25 114.3 171.096 104.791 171.096 104.791 171.096 104.791 168.945 95.463 155.848 95.463L131.447 95.463C129.475 95.463 121.938 95.64 114.941 92.77 97.359 107.482 122.837 118.246 122.837 118.246zM177.914 18.137C175.94 15.984 175.044 13.114 175.404 10.601 175.761 8.986 171.815 9.705 168.765 12.754 173.07 17.239 175.044 23.698 175.044 30.156 175.044 42.177 166.073 57.068 139.163 57.068 131.986 57.068 126.782 56.35 122.298 54.556 117.454 57.068 108.303 68.371 126.603 68.371L151.721 68.371C163.562 68.371 185.271 69.269 181.503 99.948 181.503 99.948 180.427 114.3 162.127 125.602 139.7 139.418 103.818 138.16 97 123.449 89.825 108.021 102.922 95.64 112.61 91.335 107.407 88.825 102.922 84.158 102.922 76.085 102.922 76.085 102.563 60.657 119.607 53.659 107.766 48.995 103.459 38.409 103.459 30.156 103.459 15.624 113.686 3.246 139.163 3.246 152.439 3.246 161.409 6.475 167.151 11.319 172.531 4.142 178.813 1.631 182.938.733 186.526.017 191.011 1.092 193.881 3.962 197.829 8.27 197.47 15.087 192.985 19.033 188.678 22.981 181.683 22.442 177.914 18.137z" transform="translate(616 48)"/>
    <path fill="#FFF" d="M846.483 137.361C824.774 137.361 814.19 130.186 814.19 130.186L814.19 107.222 816.521 107.222C819.751 119.061 829.978 135.03 846.483 135.03 859.221 135.03 861.734 119.6 848.098 110.631L829.978 99.686C812.755 88.742 808.269 72.596 818.675 60.036 818.675 60.036 825.313 51.246 844.509 51.246 865.143 51.246 873.932 56.449 873.932 56.449L873.932 75.646 871.601 75.646C868.909 64.522 859.043 53.577 844.509 53.577 832.848 53.577 827.646 66.317 843.254 76.184L861.375 87.487C877.521 97.354 882.185 115.295 872.857 127.674 872.857 127.674 866.039 137.361 846.483 137.361M1065.56 135.747L1024.66 135.747 1024.66 133.595C1031.47 131.621 1031.83 123.728 1031.83 114.577L1031.83 79.234C1031.83 69.007 1028.42 64.163 1021.25 64.163 1015.68 64.163 1009.23 69.903 1009.05 75.825 1009.05 77.44 1009.05 77.977 1009.05 79.054L1009.05 114.577C1009.05 124.444 1010.12 131.981 1016.4 133.595L1016.4 135.747 975.498 135.747 975.498 133.595C982.316 131.621 982.675 123.728 982.675 114.577L982.675 79.234C982.675 69.007 979.446 64.163 972.268 64.163 966.886 64.163 961.325 69.903 960.247 74.927L960.247 114.936C960.247 124.804 961.146 131.801 967.604 133.595L967.604 135.747 926.699 135.747 926.699 133.595C933.517 131.621 933.694 124.085 933.694 114.936L933.694 73.312C933.694 67.033 931.902 64.163 924.545 60.934L924.545 58.601 960.247 51.246 960.247 69.007C964.734 59.14 974.063 51.246 984.647 51.246 997.207 51.246 1006.54 56.449 1008.69 70.083 1012.63 59.319 1022.86 51.246 1033.8 51.246 1047.98 51.246 1058.21 56.986 1058.21 78.516L1058.21 114.577C1058.21 124.444 1059.28 131.981 1065.56 133.595L1065.56 135.747M1124.95 90.357C1124.95 67.752 1120.11 53.577 1111.13 53.577 1101.63 53.577 1095.89 73.133 1095.89 90.357L1124.95 90.357zM1095.89 92.688C1096.6 115.116 1105.39 123.189 1117.42 125.879 1126.74 128.033 1140.02 123.548 1143.97 111.707L1146.3 112.603C1143.79 123.905 1131.95 137.361 1108.62 137.361 1085.12 137.361 1067.54 117.269 1067.54 94.662 1067.54 66.674 1087.81 51.246 1111.13 51.246 1133.74 51.246 1148.81 61.83 1148.81 92.688L1095.89 92.688z"/>
    <polygon fill="#FFF" points="890.504 136.013 916.504 136.013 916.504 110.013 890.504 110.013"/>
  </g>
</svg>
