<svg xmlns="http://www.w3.org/2000/svg" width="75" height="75" viewBox="0 0 75 75">
  <defs>
    <linearGradient id="icon_mail-a" x1="0%" x2="100.001%" y1="49.999%" y2="49.999%">
      <stop offset="0%" stopColor="#4B76B0"/>
      <stop offset="99.72%" stopColor="#65BBB7"/>
    </linearGradient>
    <linearGradient id="icon_mail-b" x1="-.003%" x2="99.999%" y1="50.007%" y2="50.007%">
      <stop offset="0%" stopColor="#4B76B0"/>
      <stop offset="99.72%" stopColor="#65BBB7"/>
    </linearGradient>
    <linearGradient id="icon_mail-c" x1="-.003%" x2="99.999%" y1="50.01%" y2="50.01%">
      <stop offset="0%" stopColor="#4B76B0"/>
      <stop offset="99.72%" stopColor="#65BBB7"/>
    </linearGradient>
  </defs>
  <g fill="none" fillRule="evenodd" transform="translate(5 4)">
    <path fill="url(#icon_mail-a)" fillRule="nonzero" d="M65.874,22.171 C65.874,22.053 65.752,21.935 65.634,21.817 L65.558,21.699 L59,17.339 L59,7.322 C59,6.615 58.441,5.666 57.734,5.666 L42.178,5.666 L33.575,0.248 C33.221,0.012 32.632,-0.107 32.279,0.128 L23.794,5.665 L8.237,5.665 C7.53,5.665 7,6.615 7,7.322 L7,17.339 L0.43,21.699 L0.274,21.817 C0.156,21.935 0,22.053 0,22.171 L0,22.289 C0,22.289 0,22.525 0,22.643 L0,65.068 C0,65.775 0.459,66.666 1.166,66.666 L64.804,66.666 C65.511,66.666 65.999,65.775 65.999,65.068 L65.999,22.642 C66,22.524 65.992,22.406 65.874,22.171 Z M62.771,22.642 L59,25.117 L59,20.05 L62.771,22.642 Z M32.985,2.365 L37.935,5.665 L28.036,5.665 L32.985,2.365 Z M57,8.665 L57,26.766 L33,42.441 L9,26.767 L9,8.665 L57,8.665 Z M32.523,44.797 C32.877,45.033 33.172,45.033 33.526,44.797 L35,43.619 L35,63.665 L31,63.665 L31,43.737 L32.523,44.797 Z M7,20.167 L7,25.234 L3.229,22.641 L7,20.167 Z M2,24.881 L28,42.205 L28,63.665 L2,63.665 L2,24.881 Z M38,63.665 L38,42.087 L64,24.763 L64,63.665 L38,63.665 Z"/>
    <path fill="url(#icon_mail-b)" d="M21.201,21.665 L44.771,21.665 C45.478,21.665 45.949,20.872 45.949,20.165 C45.949,19.458 45.478,18.665 44.771,18.665 L21.201,18.665 C20.494,18.665 20.023,19.458 20.023,20.165 C20.022,20.872 20.494,21.665 21.201,21.665 Z"/>
    <path fill="url(#icon_mail-c)" d="M21.201,28.665 L44.771,28.665 C45.478,28.665 45.949,28.372 45.949,27.665 C45.949,26.958 45.478,26.665 44.771,26.665 L21.201,26.665 C20.494,26.665 20.023,26.958 20.023,27.665 C20.022,28.372 20.494,28.665 21.201,28.665 Z"/>
  </g>
</svg>
