<svg xmlns="http://www.w3.org/2000/svg" width="75" height="75" viewBox="0 0 75 75">
  <defs>
    <linearGradient id="icon_work-a" x1=".001%" x2="100.001%" y1="50%" y2="50%">
      <stop offset="0%" stopColor="#4B76B0"/>
      <stop offset="99.72%" stopColor="#65BBB7"/>
    </linearGradient>
    <linearGradient id="icon_work-b" x1=".005%" x2="100.005%" y1="50%" y2="50%">
      <stop offset="0%" stopColor="#4B76B0"/>
      <stop offset="99.72%" stopColor="#65BBB7"/>
    </linearGradient>
    <linearGradient id="icon_work-c" x1=".001%" x2="99.999%" y1="50%" y2="50%">
      <stop offset="0%" stopColor="#4B76B0"/>
      <stop offset="99.72%" stopColor="#65BBB7"/>
    </linearGradient>
    <linearGradient id="icon_work-d" x1="0%" x2="99.999%" y1="50%" y2="50%">
      <stop offset="0%" stopColor="#4B76B0"/>
      <stop offset="99.72%" stopColor="#65BBB7"/>
    </linearGradient>
    <linearGradient id="icon_work-e" x1="-.004%" x2="100.003%" y1="50%" y2="50%">
      <stop offset="0%" stopColor="#4B76B0"/>
      <stop offset="99.72%" stopColor="#65BBB7"/>
    </linearGradient>
    <linearGradient id="icon_work-f" x1=".001%" y1="50%" y2="50%">
      <stop offset="0%" stopColor="#4B76B0"/>
      <stop offset="99.72%" stopColor="#65BBB7"/>
    </linearGradient>
    <linearGradient id="icon_work-g" x1=".001%" x2="99.999%" y1="50%" y2="50%">
      <stop offset="0%" stopColor="#4B76B0"/>
      <stop offset="99.72%" stopColor="#65BBB7"/>
    </linearGradient>
  </defs>
  <g fill="none" fillRule="evenodd" transform="translate(4 6)">
    <g transform="translate(7 6)">
      <path fill="url(#icon_work-a)" d="M0.018,50 L0.018,52.641 L0.018,57.036 C0.018,57.773 0.882,58 1.619,58 L57.768,58 C58.505,58 59.018,57.773 59.018,57.036 L59.018,0.887 C59.018,0.15 58.505,0 57.768,0 L51.597,0 L49.018,0 L49.018,2 L51.597,2 L57.018,2 L57.018,11.87 L57.018,14.312 L57.018,56 L3.018,56 L3.018,52.641 L3.018,50 L0.018,50 Z"/>
      <polygon fill="url(#icon_work-b)" points="49.018 14 51.597 14 57.018 14 57.018 12 51.597 12 49.018 12"/>
    </g>
    <path fill="url(#icon_work-c)" fillRule="nonzero" d="M57.372,0 L1.223,0 C0.486,0 0.018,0.53 0.018,1.267 L0.018,57.416 C0.018,58.153 0.486,59 1.223,59 L57.372,59 C57.949,59 58.577,58.527 58.737,58.048 C58.781,57.915 59.019,57.575 59.019,57.416 L59.019,1.267 C59.018,0.53 58.109,0 57.372,0 Z M56.018,56 L2.018,56 L2.018,2 L56.018,2 L56.018,56 Z"/>
    <path fill="url(#icon_work-d)" d="M57.374,15 L1.221,15 C0.488,15 0,14.232 0,13.5 C0,12.768 0.488,12 1.221,12 L57.375,12 C58.107,12 58.596,12.768 58.596,13.5 C58.596,14.232 58.107,15 57.374,15 Z"/>
    <path fill="url(#icon_work-e)" fillRule="nonzero" d="M49.928,37 L37.721,37 C36.989,37 36.019,36.298 36.019,35.565 L36.019,20.917 C36.019,20.185 36.989,20 37.721,20 L49.928,20 C50.66,20 51.018,20.184 51.018,20.917 L51.018,35.566 C51.018,36.176 50.66,37 49.928,37 Z M39.018,34 L49.018,34 L49.018,22 L39.018,22 L39.018,34 Z"/>
    <path fill="url(#icon_work-f)" d="M30.396 22L8.423 22C7.691 22 7.202 21.732 7.202 21 7.202 20.268 7.69 20 8.423 20L30.396 20C31.128 20 31.617 20.268 31.617 21 31.617 21.732 31.129 22 30.396 22zM30.396 29L8.423 29C7.691 29 7.202 28.732 7.202 28 7.202 27.268 7.69 27 8.423 27L30.396 27C31.128 27 31.617 27.268 31.617 28 31.617 28.732 31.129 29 30.396 29zM30.396 37L8.423 37C7.691 37 7.202 36.232 7.202 35.5 7.202 34.768 7.69 34 8.423 34L30.396 34C31.128 34 31.617 34.768 31.617 35.5 31.617 36.232 31.129 37 30.396 37z"/>
    <path fill="url(#icon_work-g)" d="M49.928 44L8.423 44C7.691 44 7.202 43.732 7.202 43 7.202 42.268 7.69 42 8.423 42L49.928 42C50.66 42 51.149 42.268 51.149 43 51.149 43.732 50.66 44 49.928 44zM49.928 51L8.423 51C7.691 51 7.202 50.732 7.202 50 7.202 49.268 7.69 49 8.423 49L49.928 49C50.66 49 51.149 49.268 51.149 50 51.149 50.732 50.66 51 49.928 51z"/>
  </g>
</svg>
