<svg xmlns="http://www.w3.org/2000/svg" width="75" height="75" viewBox="0 0 75 75">
  <defs>
    <linearGradient id="icon_stats-a" x1="0%" x2="100.001%" y1="50%" y2="50%">
      <stop offset="0%" stopColor="#4B76B0"/>
      <stop offset="99.72%" stopColor="#65BBB7"/>
    </linearGradient>
    <linearGradient id="icon_stats-b" x1=".004%" x2="99.999%" y1="50%" y2="50%">
      <stop offset="0%" stopColor="#4B76B0"/>
      <stop offset="99.72%" stopColor="#65BBB7"/>
    </linearGradient>
  </defs>
  <g fill="none" fillRule="evenodd" transform="translate(4 5)">
    <path fill="url(#icon_stats-a)" fillRule="nonzero" d="M1.298,40 C0.591,40 0.12,40.293 0.12,41 C0.12,41.707 0.591,42 1.298,42 L30.642,42 L13.672,63 L11.904,63 C11.197,63 10.726,63.793 10.726,64.5 C10.726,65.207 11.197,66 11.904,66 L16.618,66 C17.325,66 17.796,65.334 17.796,64.627 C17.796,63.92 17.153,63.351 16.446,63.351 L31.594,44.162 L31.594,56 L30.76,56 C30.053,56 29.582,56.793 29.582,57.5 C29.582,58.207 30.053,59 30.76,59 L35.474,59 C36.181,59 36.652,58.207 36.652,57.5 C36.652,56.793 36.181,56 35.474,56 L34.595,56 L34.595,44.162 L49.648,63.253 C48.941,63.253 48.395,64.037 48.395,64.626 C48.395,65.215 48.909,66 49.498,66 L54.212,66 C54.919,66 55.39,65.207 55.39,64.5 C55.39,63.793 54.919,63 54.212,63 L52.444,63 L35.592,42 L64.936,42 C65.643,42 66.114,41.707 66.114,41 C66.114,40.293 65.643,40 64.936,40 L61.594,40 L61.594,9.043 C63.594,9.043 66.211,7.114 66.211,4.522 C66.211,1.93 63.993,0 61.401,0 L4.833,0 C2.241,0 0,1.929 0,4.521 C0,7.113 2.595,9.042 4.595,9.042 L4.595,40 L1.298,40 Z M2.476,4.5 C2.476,3.204 3.537,2 4.833,2 L61.4,2 C62.696,2 63.757,3.204 63.757,4.5 C63.757,5.796 62.697,7 61.401,7 L4.833,7 C3.537,7 2.476,5.796 2.476,4.5 Z M7.595,9 L58.595,9 L58.595,40 L7.595,40 L7.595,9 Z"/>
    <path fill="url(#icon_stats-b)" d="M51.666,16.821 C51.666,16.703 51.643,16.703 51.643,16.585 C51.643,16.585 51.69,16.467 51.572,16.467 C51.454,16.349 51.478,16.233 51.36,16.233 L51.266,16 L51.03,16 C50.912,16 50.794,16 50.676,16 L43.605,16 C42.898,16 42.427,16.293 42.427,17 C42.427,17.707 42.898,18 43.605,18 L47.612,18 L35.002,29.549 L24.042,17.646 C23.806,17.41 23.453,17.233 23.099,17.351 C22.745,17.351 22.392,17.616 22.156,17.97 L14.26,30.83 C13.906,31.419 14.142,32.134 14.614,32.487 C15.203,32.841 15.91,32.609 16.264,32.137 L23.335,20.59 L34.06,32.258 C34.531,32.729 35.228,32.73 35.699,32.376 L49.594,20.002 L49.594,24.362 C49.594,25.069 49.887,25.54 50.594,25.54 C51.301,25.54 51.594,25.069 51.594,24.362 L51.594,17.291 L51.594,17.173 C51.595,17.057 51.784,16.939 51.666,16.821 Z"/>
  </g>
</svg>
