<svg xmlns="http://www.w3.org/2000/svg" width="75" height="75" viewBox="0 0 75 75">
  <defs>
    <linearGradient id="icon_bio-a" x1="0%" y1="50%" y2="50%">
      <stop offset="0%" stopColor="#4B76B0"/>
      <stop offset="99.72%" stopColor="#65BBB7"/>
    </linearGradient>
  </defs>
  <path fill="url(#icon_bio-a)" d="M65.34,56.271 C57.241,50.496 50.124,47.647 41.499,46.597 C40.899,46.522 40.378,46.822 40.078,47.272 C39.928,47.422 39.855,47.647 39.855,47.872 C39.78,48.697 40.328,49.447 41.153,49.522 C48.953,50.497 56,53.122 63,58.221 L63,68 L3,68 L3,58.221 C10,53.046 16.862,50.497 24.737,49.522 C25.487,49.447 26,48.772 26,48.022 L26,42.472 C27,42.847 28.907,43 30.407,43 L33.857,43 L35.657,43 C43.906,43 51,36.323 51,28.074 L51,15.399 C51,7.15 43.906,0 35.657,0 L30.407,0 C22.158,0 15,7.15 15,15.399 L15,28.148 C15,33.773 19,38.722 23,41.272 L23,46.747 C15,47.947 8.275,50.797 0.551,56.271 C0.176,56.571 0,57.021 0,57.471 L0,69.395 C0,70.22 0.709,71 1.534,71 L64.53,71 C65.355,71 66,70.22 66,69.395 L66,57.471 C66,57.021 65.715,56.496 65.34,56.271 Z M47,28.001 C47,34.628 41.628,40 35.001,40 L29.999,40 C23.372,40 18,34.628 18,28.001 L18,14.999 C18,8.372 23.372,3 29.999,3 L35.001,3 C41.628,3 47,8.372 47,14.999 L47,28.001 Z" transform="translate(5 2)"/>
</svg>
