<svg xmlns="http://www.w3.org/2000/svg" width="75" height="75" viewBox="0 0 75 75">
  <defs>
    <linearGradient id="icon_address-a" x1="0%" y1="50%" y2="50%">
      <stop offset="0%" stopColor="#4B76B0"/>
      <stop offset="99.72%" stopColor="#65BBB7"/>
    </linearGradient>
  </defs>
  <path fill="url(#icon_address-a)" d="M57.675,54.869 C62.845,49.042 66.241,41.382 66.241,32.997 C66.241,24.273 62.53,16.336 57.53,10.429 L57.53,10.428 C57.53,10.421 57.273,10.419 57.269,10.413 C51.49,4.27 43.27,0.338 34.264,0.03 L34.201,0.029 L33.527,0.012 C33.362,0.006 33.18,0 33.013,0 C32.846,0 32.672,0.006 32.506,0.011 L31.862,0.028 L31.858,0.03 C22.852,0.338 14.754,4.27 8.975,10.414 C8.97,10.42 8.963,10.422 8.96,10.429 C8.96,10.429 8.96,10.43 8.959,10.431 C3.409,16.336 0,24.274 0,32.998 C0,41.383 3.15,49.043 8.32,54.87 C8.327,54.88 8.327,54.892 8.335,54.902 C8.355,54.93 8.385,54.944 8.407,54.97 C14.217,61.465 22.553,65.649 31.856,65.967 L31.857,65.968 L32.498,65.985 C32.665,65.99 32.831,65.995 32.999,65.995 C33.167,65.995 33.332,65.989 33.499,65.984 L34.14,65.967 L34.141,65.966 C43.454,65.646 51.799,61.454 57.609,54.946 C57.624,54.927 57.648,54.921 57.661,54.9 C57.668,54.891 57.668,54.88 57.675,54.869 Z M2.304,34.385 L15.962,34.385 C16.091,39.385 17.033,43.77 18.71,48.161 C15.474,49.332 12.38,50.964 9.481,52.924 C5.217,47.853 2.563,41.385 2.304,34.385 Z M10.102,12.305 C12.933,14.146 15.947,15.502 19.091,16.603 C17.166,21.276 16.101,26.384 15.962,31.384 L2.304,31.384 C2.576,24.385 5.475,17.477 10.102,12.305 Z M63.691,31.385 L50.033,31.385 C49.894,26.385 48.829,21.395 46.904,16.722 C50.048,15.621 53.062,14.027 55.893,12.186 C60.52,17.358 63.419,24.385 63.691,31.385 Z M31.53,17.026 C28.53,16.933 25.011,16.442 21.891,15.566 C24.197,10.835 27.53,6.564 31.53,3.009 L31.53,17.026 Z M31.53,19.301 L31.53,31.385 L18.237,31.385 C18.377,27.385 19.25,21.877 21.106,17.428 C24.526,18.419 28.53,19.205 31.53,19.301 Z M34.53,19.301 C37.53,19.204 41.501,18.42 44.923,17.427 C46.779,21.876 47.619,27.384 47.759,31.384 L34.53,31.384 L34.53,19.301 Z M34.53,17.026 L34.53,3.008 C38.53,6.564 41.862,10.834 44.169,15.565 C41.048,16.442 37.53,16.932 34.53,17.026 Z M45.979,14.874 C43.793,10.294 40.76,6.122 37.004,2.545 C43.667,3.417 49.663,6.43 54.28,10.872 C51.658,12.536 48.877,13.874 45.979,14.874 Z M20.016,14.874 C17.118,13.874 14.337,12.536 11.717,10.872 C16.333,6.43 22.33,3.417 28.993,2.545 C25.235,6.122 22.202,10.294 20.016,14.874 Z M18.237,34.385 L31.53,34.385 L31.53,45.557 C28.53,45.657 24.245,46.369 20.702,47.435 C19.101,43.277 18.366,38.385 18.237,34.385 Z M31.53,47.833 L31.53,62.987 C27.53,59.181 23.747,54.557 21.421,49.427 C24.683,48.465 28.53,47.931 31.53,47.833 Z M34.53,62.987 L34.53,47.833 C37.53,47.93 41.376,48.466 44.639,49.426 C42.313,54.556 38.53,59.181 34.53,62.987 Z M34.53,45.557 L34.53,34.385 L47.758,34.385 C47.629,38.385 46.927,43.277 45.325,47.437 C41.782,46.369 37.53,45.657 34.53,45.557 Z M50.033,34.385 L63.691,34.385 C63.432,41.385 60.779,47.79 56.515,52.862 C53.616,50.903 50.522,49.395 47.286,48.224 C48.964,43.833 49.905,39.385 50.033,34.385 Z M11.027,54.441 C13.719,52.652 16.585,51.214 19.58,50.139 C21.793,55.1 24.97,59.621 28.991,63.45 C21.992,62.534 15.728,59.257 11.027,54.441 Z M37.004,63.45 C41.025,59.622 44.202,55.102 46.415,50.139 C49.41,51.214 52.275,52.653 54.968,54.441 C50.267,59.257 44.003,62.534 37.004,63.45 Z" transform="translate(4 5)"/>
</svg>
