<svg xmlns="http://www.w3.org/2000/svg" width="75" height="75" viewBox="0 0 75 75">
  <defs>
    <linearGradient id="icon_customize-a" x1="0%" y1="50%" y2="50%">
      <stop offset="0%" stopColor="#4B76B0"/>
      <stop offset="99.72%" stopColor="#65BBB7"/>
    </linearGradient>
    <linearGradient id="icon_customize-b" x1="0%" y1="50%" y2="50%">
      <stop offset="0%" stopColor="#4B76B0"/>
      <stop offset="99.72%" stopColor="#65BBB7"/>
    </linearGradient>
  </defs>
  <g fill="none" transform="translate(5 5)">
    <path fill="url(#icon_customize-a)" d="M64.883,0 L1.088,0 C0.48,0 0,0.646 0,1.254 L0,65.049 C0,65.656 0.48,66 1.088,66 L64.883,66 C65.491,66 66,65.656 66,65.049 L66,1.254 C66,0.646 65.491,0 64.883,0 Z M64,2 L64,9 L2,9 L2,2 L64,2 Z M2,64 L2,11 L64,11 L64,64 L2,64 Z"/>
    <path fill="url(#icon_customize-b)" d="M47.684 0L44.384 0C41.729 0 39.507 2 38.995 4L30 4 30 2 28 2 28 4 12 4 12 2 10 2 10 4 0 4 0 6 10 6 10 8 12 8 12 6 28 6 28 8 30 8 30 6 38.996 6C39.507 9 41.728 11 44.385 11L47.685 11C50.34 11 52.562 9 53.074 6L58 6 58 4 53.073 4C52.561 2 50.339 0 47.684 0zM47.684 8L44.384 8C42.565 8 41.084 6.819 41.084 5 41.084 3.181 42.564 2 44.384 2L47.684 2C49.503 2 50.984 3.181 50.984 5 50.984 6.819 49.503 8 47.684 8zM48 17L45 17 45 19 30 19 30 17 28 17 28 19 16.775 19C16.264 17 14.043 15 11.386 15L8.086 15C5.431 15 3.209 17 2.697 19L0 19 0 22 2.698 22C3.209 24 5.43 26 8.087 26L11.387 26C14.042 26 16.264 24 16.776 22L28 22 28 24 30 24 30 22 45 22 45 24 48 24 48 22 58 22 58 19 48 19 48 17zM11.387 24L8.087 24C6.268 24 4.787 22.319 4.787 20.5 4.787 18.681 6.267 17 8.087 17L11.387 17C13.206 17 14.687 18.681 14.687 20.5 14.687 22.319 13.206 24 11.387 24zM48 33L45 33 45 35 36.574 35C36.063 32 33.842 30 31.185 30L27.885 30C25.23 30 23.008 32 22.496 35L12 35 12 33 10 33 10 35 0 35 0 37 10 37 10 39 12 39 12 37 22.497 37C23.008 40 25.229 41 27.886 41L31.186 41C33.841 41 36.063 40 36.575 37L45 37 45 39 48 39 48 37 58 37 58 35 48 35 48 33zM31.185 39L27.885 39C26.066 39 24.585 37.819 24.585 36 24.585 34.181 26.065 33 27.885 33L31.185 33C33.004 33 34.485 34.181 34.485 36 34.485 37.819 33.005 39 31.185 39z" transform="translate(4 17)"/>
  </g>
</svg>
